<?xml version="1.0" encoding="iso-8859-1"?>
<!-- Generator: Adobe Illustrator 19.0.0, SVG Export Plug-In . SVG Version: 6.00 Build 0)  -->
<svg version="1.1" id="Capa_1" xmlns="http://www.w3.org/2000/svg" xmlns:xlink="http://www.w3.org/1999/xlink" x="0px" y="0px"
	 viewBox="0 0 511.999 511.999" style="enable-background:new 0 0 511.999 511.999;" xml:space="preserve">
<g>
	<g>
		<path d="M484.609,318.814l-92.697-52.918v-44.585l47.194-27.027c11.224-6.428,18.195-18.456,18.195-31.389v-59.817
			c0-8.299-6.728-15.027-15.027-15.027s-15.027,6.728-15.027,15.027v59.817c0,2.188-1.179,4.222-3.077,5.309l-32.281,18.487
			c-0.441-22.193-16.84-40.535-38.174-43.991c-5.363-37.502-31.877-68.269-67.036-79.793l36.146-37.439
			c5.765-5.971,5.598-15.484-0.373-21.249c-5.972-5.766-15.486-5.597-21.249,0.373L256.001,51.41L210.799,4.589
			c-5.765-5.97-15.278-6.138-21.249-0.373c-5.971,5.765-6.137,15.278-0.373,21.249l36.146,37.439
			c-35.158,11.524-61.673,42.291-67.036,79.793c-21.233,3.44-37.577,21.625-38.167,43.675l-31.729-18.17
			c-1.899-1.087-3.078-3.121-3.078-5.309v-59.817c0-8.299-6.728-15.027-15.027-15.027c-8.299,0-15.027,6.728-15.027,15.027v59.817
			c0,12.934,6.972,24.962,18.196,31.389l46.634,26.706v44.907l-92.7,52.918c-7.207,4.114-9.715,13.293-5.6,20.5
			c2.773,4.858,7.844,7.58,13.064,7.58c2.526,0,5.086-0.638,7.437-1.981l77.797-44.412v44.673c0,3.162,0.117,6.296,0.332,9.404
			L72.99,381.74c-11.224,6.429-18.196,18.457-18.196,31.39v83.841c0,8.299,6.728,15.027,15.027,15.027s15.027-6.728,15.027-15.027
			V413.13c0-2.188,1.18-4.223,3.078-5.31l38.379-21.979c5.008,15.936,12.878,30.615,23.004,43.434
			c0.465,0.68,0.979,1.333,1.565,1.943c24.946,30.422,62.806,49.867,105.125,49.867c42.319,0,80.18-19.446,105.125-49.867
			c0.586-0.609,1.101-1.262,1.565-1.943c10.089-12.771,17.936-27.389,22.946-43.256l38.069,21.801
			c1.899,1.087,3.078,3.122,3.078,5.31v83.841c0,8.299,6.728,15.027,15.027,15.027s15.027-6.728,15.027-15.027V413.13
			c0-12.935-6.973-24.963-18.197-31.39l-47.073-26.958c0.222-3.175,0.345-6.378,0.345-9.608v-44.673l77.797,44.412
			c2.351,1.342,4.91,1.981,7.437,1.981c5.22,0,10.291-2.723,13.064-7.58C494.324,332.107,491.816,322.928,484.609,318.814z
			 M255.999,88.074c32.839,0,60.352,23.178,67.077,54.032H188.923C195.647,111.252,223.16,88.074,255.999,88.074z M150.143,345.176
			V187.604c0-8.516,6.928-15.443,15.442-15.443h75.387v133.848l-77.76,90.073C154.887,380.968,150.143,363.617,150.143,345.176z
			 M255.999,451.033c-28.888,0-55.106-11.636-74.225-30.462l74.225-85.977l74.225,85.977
			C311.105,439.396,284.887,451.033,255.999,451.033z M361.856,345.176c0,18.44-4.744,35.791-13.069,50.905l-77.76-90.073V172.161
			h75.387c8.515,0,15.442,6.928,15.442,15.443V345.176z"/>
	</g>
</g>
<g>
</g>
<g>
</g>
<g>
</g>
<g>
</g>
<g>
</g>
<g>
</g>
<g>
</g>
<g>
</g>
<g>
</g>
<g>
</g>
<g>
</g>
<g>
</g>
<g>
</g>
<g>
</g>
<g>
</g>
</svg>
